<?xml version="1.0" encoding="UTF-8"?>
<!DOCTYPE svg PUBLIC "-//W3C//DTD SVG 1.1//EN" "http://www.w3.org/Graphics/SVG/1.1/DTD/svg11.dtd">
<svg xmlns="http://www.w3.org/2000/svg" version="1.1" width="605px" height="605px" style="shape-rendering:geometricPrecision; text-rendering:geometricPrecision; image-rendering:optimizeQuality; fill-rule:evenodd; clip-rule:evenodd" xmlns:xlink="http://www.w3.org/1999/xlink">
<g><path style="opacity:0.997" fill="#1e1e1e" d="M 277.5,3.5 C 392.627,-1.46388 483.46,42.5361 550,135.5C 600.722,215.59 612.722,301.257 586,392.5C 551.243,492.257 483.409,557.757 382.5,589C 279.472,614.601 187.139,593.935 105.5,527C 21.9282,449.623 -10.2385,354.456 9,241.5C 29.5704,150.121 80.7371,81.9538 162.5,37C 198.786,18.4001 237.119,7.23348 277.5,3.5 Z"/></g>
<g><path style="opacity:1" fill="#fefefe" d="M 272.5,73.5 C 282.172,73.3335 291.839,73.5002 301.5,74C 323.257,77.5938 335.257,90.4272 337.5,112.5C 335.423,135.409 323.09,148.909 300.5,153C 243.501,154.243 199.668,178.743 169,226.5C 150.109,261.494 144.775,298.494 153,337.5C 168.779,392.946 204.279,428.779 259.5,445C 274.388,448.055 289.388,450.389 304.5,452C 321.411,454.909 331.911,464.742 336,481.5C 339.522,506.947 329.022,523.114 304.5,530C 227.052,531.356 164.218,501.856 116,441.5C 72.435,383.517 58.435,318.85 74,247.5C 96.4845,167.683 146.651,113.516 224.5,85C 240.45,80.3937 256.45,76.5603 272.5,73.5 Z"/></g>
<g><path style="opacity:1" fill="#fdfdfd" d="M 421.5,110.5 C 440.807,127.806 459.807,145.472 478.5,163.5C 432.805,209.195 387.472,255.195 342.5,301.5C 387.125,347.625 432.291,393.292 478,438.5C 477.912,441.642 476.412,444.142 473.5,446C 456.953,461.55 440.12,476.716 423,491.5C 421.177,490.349 419.344,489.182 417.5,488C 363.637,433.137 310.137,377.971 257,322.5C 250.602,315.938 244.768,308.938 239.5,301.5C 245.103,293.727 251.269,286.394 258,279.5C 313.067,223.602 367.567,167.269 421.5,110.5 Z"/></g>
</svg>
